<svg width="13" height="13" viewBox="0 0 13 13" fill="none" xmlns="http://www.w3.org/2000/svg">
<path d="M1.90757 1.90769C-0.629347 4.44461 -0.629347 8.55854 1.90757 11.0955C4.44449 13.6324 8.55842 13.6324 11.0953 11.0955C13.6323 8.55854 13.6323 4.44461 11.0953 1.90769C8.55842 -0.629225 4.44449 -0.629225 1.90757 1.90769ZM6.762 2.73048C7.31053 2.73048 7.74935 3.18301 7.74935 3.73153C7.74935 4.28006 7.29681 4.73259 6.762 4.73259C6.21348 4.73259 5.76095 4.28006 5.76095 3.71782C5.76095 3.1693 6.21348 2.73048 6.762 2.73048ZM8.17445 9.43617C8.14702 9.51845 8.09217 9.61444 8.03732 9.6693C7.68078 10.0395 7.24196 10.259 6.72086 10.259C6.47403 10.259 6.24091 10.259 5.99407 10.2178C5.59639 10.163 5.08901 9.6693 5.15757 9.1482C5.21242 8.79166 5.26728 8.43512 5.32213 8.07858C5.43183 7.46149 5.54154 6.83069 5.65124 6.2136C5.65124 6.17246 5.66496 6.13132 5.66496 6.09018C5.66496 5.82963 5.58268 5.73364 5.32213 5.70622C5.21243 5.6925 5.10272 5.67879 4.99302 5.65137C4.8696 5.61023 4.80103 5.50052 4.81475 5.40453C4.82846 5.29482 4.89703 5.22626 5.03416 5.19883C5.10272 5.18512 5.185 5.18512 5.26728 5.18512C5.56897 5.18512 5.87065 5.18512 6.18605 5.18512C6.51517 5.18512 6.83057 5.18512 7.15968 5.18512C7.39281 5.18512 7.52994 5.29483 7.52994 5.52795C7.52994 5.71993 7.50251 5.91191 7.46137 6.1039C7.33795 6.81698 7.20082 7.51634 7.0774 8.22942C7.03626 8.46255 6.98141 8.69567 6.95399 8.92879C6.94027 9.0385 6.95399 9.16191 6.98141 9.27162C7.02255 9.42246 7.13226 9.50474 7.2831 9.49103C7.40652 9.47731 7.52994 9.43617 7.65335 9.38132C7.74935 9.34018 7.83162 9.27162 7.92762 9.24419C8.09217 9.18934 8.21559 9.28533 8.17445 9.43617Z" fill="white"/>
</svg>
