<svg width="15" height="15" viewBox="0 0 15 15" fill="none" xmlns="http://www.w3.org/2000/svg">
<path d="M4.04276 4.89771H1.02539V14.0211H4.04276V4.89771Z" fill="white"/>
<path d="M13.9472 5.7297C13.313 5.03311 12.4738 4.68481 11.4327 4.68481C11.0484 4.68481 10.6992 4.73319 10.3853 4.82671C10.0714 4.92346 9.80554 5.05568 9.59093 5.22661C9.37312 5.39753 9.20335 5.55878 9.07522 5.7039C8.9535 5.84257 8.83499 6.00705 8.71967 6.19087V4.89444H5.71191L5.72152 5.33626C5.72793 5.62973 5.73113 6.53916 5.73113 8.06134C5.73113 9.58352 5.72473 11.5701 5.71191 14.0178H8.71967V8.92886C8.71967 8.61604 8.75171 8.36771 8.81897 8.18389C8.9471 7.87107 9.13929 7.60985 9.39874 7.397C9.6582 7.18416 9.97851 7.07773 10.3629 7.07773C10.8882 7.07773 11.2726 7.26155 11.5192 7.62597C11.7659 7.99039 11.8908 8.49671 11.8908 9.1417V14.0211H14.8986V8.79341C14.8986 7.4486 14.5814 6.42629 13.9472 5.7297Z" fill="white"/>
<path d="M2.55341 0.505249C2.04731 0.505249 1.63731 0.653597 1.3234 0.950293C1.00949 1.25021 0.852539 1.62431 0.852539 2.07903C0.852539 2.5273 1.00629 2.90139 1.31059 3.20131C1.61489 3.50123 2.01849 3.65281 2.51818 3.65281H2.5374C3.0499 3.65281 3.46311 3.50123 3.77702 3.20131C4.09093 2.90139 4.24468 2.5273 4.23827 2.07903C4.23186 1.62431 4.07811 1.25021 3.77061 0.950293C3.46631 0.653597 3.05951 0.505249 2.55341 0.505249Z" fill="white"/>
</svg>
