<svg width="18" height="15" viewBox="0 0 18 15" fill="none" xmlns="http://www.w3.org/2000/svg">
<path d="M17.3657 2.35644C16.7447 2.62935 16.0812 2.80805 15.3883 2.89577C16.1008 2.4734 16.6434 1.81061 16.8983 1.01136C16.2348 1.40448 15.5027 1.68065 14.7216 1.8366C14.0941 1.17056 13.1953 0.757935 12.2181 0.757935C10.3192 0.757935 8.78958 2.29146 8.78958 4.16937C8.78958 4.43904 8.81246 4.69896 8.86802 4.94588C6.01477 4.80942 3.49162 3.4481 1.79536 1.37849C1.49794 1.88858 1.32472 2.4734 1.32472 3.1037C1.32472 4.28633 1.9359 5.33251 2.84776 5.93682C2.29541 5.92707 1.75614 5.76787 1.29857 5.5177C1.29857 5.52745 1.29857 5.54044 1.29857 5.55669C1.29857 7.21367 2.48825 8.59124 4.04724 8.90639C3.76943 8.98112 3.46221 9.02011 3.14845 9.02011C2.92947 9.02011 2.70722 9.00711 2.49805 8.96163C2.94254 10.3132 4.20412 11.3041 5.70428 11.3366C4.53749 12.2431 3.05367 12.7922 1.45219 12.7922C1.17111 12.7922 0.899839 12.7792 0.631836 12.7467C2.15161 13.7214 3.95246 14.277 5.89384 14.277C12.2083 14.277 15.6596 9.07859 15.6596 4.57225C15.6596 4.42279 15.6531 4.27659 15.6465 4.13038C16.3263 3.64953 16.8983 3.04847 17.3657 2.35644Z" fill="white"/>
</svg>
